<svg width="25" height="21" viewBox="0 0 25 21" fill="none" xmlns="http://www.w3.org/2000/svg">
<path d="M24.6133 3.34841C23.7087 3.74924 22.737 4.02007 21.7154 4.14249C22.7576 3.51849 23.5571 2.52832 23.9341 1.34966C22.9591 1.92816 21.879 2.34849 20.7296 2.57382C19.8087 1.59449 18.4979 0.981323 17.0462 0.981323C14.2599 0.981323 12.0001 3.24116 12.0001 6.02966C12.0001 6.42399 12.0456 6.80749 12.1301 7.17799C7.9343 6.96674 4.21739 4.95716 1.72789 1.90432C1.29455 2.65182 1.04539 3.51849 1.04539 4.44149C1.04539 6.19216 1.93697 7.73807 3.29005 8.64266C2.46239 8.61557 1.68455 8.38916 1.00422 8.01107V8.07607C1.00422 10.5212 2.74297 12.5611 5.05264 13.0247C4.62797 13.1396 4.18272 13.2002 3.72339 13.2002C3.39839 13.2002 3.08097 13.1699 2.7733 13.1114C3.41572 15.1156 5.27905 16.5759 7.48797 16.6149C5.76005 17.9691 3.58364 18.7762 1.2198 18.7762C0.81247 18.7762 0.410553 18.7523 0.0151367 18.7057C2.24897 20.139 4.90097 20.9732 7.75014 20.9732C17.0343 20.9732 22.1097 13.2837 22.1097 6.61466C22.1097 6.39799 22.1043 6.17916 22.0946 5.96249C23.0804 5.24966 23.9362 4.36241 24.6111 3.35166L24.6133 3.34841Z" fill="white"/>
</svg>
